<?xml version="1.0" encoding="UTF-8"?>
<svg version="1.1" xmlns="http://www.w3.org/2000/svg" width="500" height="500">
<path d="M0 0 C165 0 330 0 500 0 C500 165 500 330 500 500 C335 500 170 500 0 500 C0 335 0 170 0 0 Z " fill="#FEFEFE" transform="translate(0,0)"/>
<path d="M0 0 C4.03338769 0.82314034 5.49675507 2.47279909 8.0625 5.625 C10.47318258 12.85704775 8.84181851 21.17972493 8.0625 28.625 C8.7225 28.955 9.3825 29.285 10.0625 29.625 C10.0625 33.255 10.0625 36.885 10.0625 40.625 C9.4025 40.625 8.7425 40.625 8.0625 40.625 C8.0625 39.635 8.0625 38.645 8.0625 37.625 C7.4025 37.625 6.7425 37.625 6.0625 37.625 C5.4025 36.305 4.7425 34.985 4.0625 33.625 C3.0725 34.285 2.0825 34.945 1.0625 35.625 C1.0625 34.965 1.0625 34.305 1.0625 33.625 C0.27875 33.480625 -0.505 33.33625 -1.3125 33.1875 C-3.9375 32.625 -3.9375 32.625 -5.9375 31.625 C-8.20584253 25.77506399 -8.09839951 19.48016421 -7.8125 13.3125 C-7.79082764 12.6311499 -7.76915527 11.9497998 -7.74682617 11.24780273 C-7.38260132 5.66782306 -5.83001933 1.24042965 0 0 Z " fill="#080808" transform="translate(254.9375,170.375)"/>
<path d="M0 0 C2.5 0.125 2.5 0.125 3.5 1.125 C3.58726223 2.90571246 3.60699041 4.6898314 3.59765625 6.47265625 C3.59282227 8.09204102 3.59282227 8.09204102 3.58789062 9.74414062 C3.57951172 10.88044922 3.57113281 12.01675781 3.5625 13.1875 C3.55798828 14.32767578 3.55347656 15.46785156 3.54882812 16.64257812 C3.53699747 19.47010351 3.5205141 22.2975264 3.5 25.125 C4.49 25.455 5.48 25.785 6.5 26.125 C6.5 17.875 6.5 9.625 6.5 1.125 C10.20152678 0.19961831 11.13458162 0.04325838 14.5 1.125 C14.26410156 2.26388672 14.26410156 2.26388672 14.0234375 3.42578125 C13.18345796 9.36205456 13.17872079 15.34442645 13.0703125 21.33398438 C13.02390625 22.76774414 13.02390625 22.76774414 12.9765625 24.23046875 C12.95674316 25.09824951 12.93692383 25.96603027 12.91650391 26.86010742 C12.41696605 29.57652754 11.55417204 30.35495704 9.5 32.125 C8.32425289 34.22489652 8.32425289 34.22489652 7.5 36.125 C7.5 35.135 7.5 34.145 7.5 33.125 C6.18 33.125 4.86 33.125 3.5 33.125 C3.5 35.105 3.5 37.085 3.5 39.125 C2.84 39.125 2.18 39.125 1.5 39.125 C1.31824219 38.22007812 1.31824219 38.22007812 1.1328125 37.296875 C0.96523438 36.49765625 0.79765625 35.6984375 0.625 34.875 C0.46257812 34.08609375 0.30015625 33.2971875 0.1328125 32.484375 C-0.38767663 30.14908455 -0.38767663 30.14908455 -1.51147461 28.34155273 C-2.74638444 25.57253658 -2.83710523 23.32736832 -2.94921875 20.30078125 C-3.01399414 18.63499023 -3.01399414 18.63499023 -3.08007812 16.93554688 C-3.11552734 15.78119141 -3.15097656 14.62683594 -3.1875 13.4375 C-3.23455078 12.27154297 -3.28160156 11.10558594 -3.33007812 9.90429688 C-3.55550113 3.55919352 -3.55550113 3.55919352 -3.5 1.125 C-2.5 0.125 -2.5 0.125 0 0 Z " fill="#090909" transform="translate(273.5,170.875)"/>
<path d="M0 0 C2.16942874 1.87019719 2.92798365 3.18120537 3.1796875 6.04296875 C3.1867196 8.02953653 3.09920508 10.01589835 3 12 C2.67 10.68 2.34 9.36 2 8 C1.34 8 0.68 8 0 8 C-0.33 8.66 -0.66 9.32 -1 10 C-2.33333333 8.66666667 -3.66666667 7.33333333 -5 6 C-4.48709368 10.11749794 -3.43083401 11.98020083 -0.5 14.875 C2.84553467 18.54340968 4.09142398 20.88025732 4 26 C3.49533933 28.75137117 2.80212638 31.31051744 2 34 C1.67 33.34 1.34 32.68 1 32 C0.01 32 -0.98 32 -2 32 C-2 34.31 -2 36.62 -2 39 C-2.66 39 -3.32 39 -4 39 C-4.33 37.68 -4.66 36.36 -5 35 C-5.66 35 -6.32 35 -7 35 C-7.66 33.68 -8.32 32.36 -9 31 C-9.66 31 -10.32 31 -11 31 C-12.35439668 28.29120665 -12.06501451 25.99066732 -12 23 C-10.68 22.67 -9.36 22.34 -8 22 C-7.54625 22.66 -7.0925 23.32 -6.625 24 C-6.08875 24.66 -5.5525 25.32 -5 26 C-4.34 26 -3.68 26 -3 26 C-3.45268476 23.05754904 -4.30880866 21.53678702 -6 19 C-7.69119134 16.46321298 -8.54731524 14.94245096 -9 12 C-9.99 12.33 -10.98 12.66 -12 13 C-12.62589928 4.86330935 -12.62589928 4.86330935 -10.1875 1.5 C-6.53355176 -1.00556451 -4.16453513 -1.35347392 0 0 Z " fill="#121212" transform="translate(327,172)"/>
<path d="M0 0 C2.33294775 -0.04241723 4.66702567 -0.04092937 7 0 C9.05780811 2.05780811 8.64400547 6.15531472 8.9375 9 C9.45581192 13.77183918 9.97782212 18.45492836 11.125 23.125 C12.00063125 27.00279554 12.16744082 30.06514075 12 34 C10.02 34 8.04 34 6 34 C6 31.03 6 28.06 6 25 C1.47653527 27.26173236 0.94171334 28.53405933 -1 33 C-1.99 32.67 -2.98 32.34 -4 32 C-4.27289722 24.97289671 -3.22312164 18.40898441 -2 11.5 C-1.80921875 10.39140625 -1.6184375 9.2828125 -1.421875 8.140625 C-0.95383586 5.42599799 -0.47974117 2.71257905 0 0 Z " fill="#0E0E0E" transform="translate(176,172)"/>
<path d="M0 0 C2.16942874 1.87019719 2.92798365 3.18120537 3.1796875 6.04296875 C3.1867196 8.02953653 3.09920508 10.01589835 3 12 C2.34 12 1.68 12 1 12 C0.67 11.34 0.34 10.68 0 10 C-0.66 10 -1.32 10 -2 10 C-2.66 9.34 -3.32 8.68 -4 8 C-4 7.01 -4 6.02 -4 5 C-4.66 5 -5.32 5 -6 5 C-4.80363329 10.5467911 -3.39171168 13.15725228 1 17 C3 19 3 19 3.23046875 20.91796875 C3.13989209 25.70206339 2.80325651 30.28086801 2 35 C1.505 33.515 1.505 33.515 1 32 C-0.32 32 -1.64 32 -3 32 C-3 34.31 -3 36.62 -3 39 C-3.33 39 -3.66 39 -4 39 C-4 37.02 -4 35.04 -4 33 C-4.66 33 -5.32 33 -6 33 C-6.33 33.66 -6.66 34.32 -7 35 C-7.268125 34.38125 -7.53625 33.7625 -7.8125 33.125 C-8.95556848 30.7004767 -8.95556848 30.7004767 -12 29 C-12.1875 25.875 -12.1875 25.875 -12 23 C-10.68 22.67 -9.36 22.34 -8 22 C-7.54625 22.66 -7.0925 23.32 -6.625 24 C-6.08875 24.66 -5.5525 25.32 -5 26 C-4.34 26 -3.68 26 -3 26 C-3.75184846 22.067919 -5.50957854 19.77676838 -7.94140625 16.68359375 C-9 15 -9 15 -9 12 C-9.99 12.33 -10.98 12.66 -12 13 C-12.62589928 4.86330935 -12.62589928 4.86330935 -10.1875 1.5 C-6.53355176 -1.00556451 -4.16453513 -1.35347392 0 0 Z " fill="#0F0F0F" transform="translate(162,172)"/>
<path d="M0 0 C4.29 0 8.58 0 13 0 C13 3.3 13 6.6 13 10 C12.34 10 11.68 10 11 10 C11 9.01 11 8.02 11 7 C10.34 7 9.68 7 9 7 C9 6.34 9 5.68 9 5 C7.35 5.33 5.7 5.66 4 6 C4.33 7.65 4.66 9.3 5 11 C7.97 11.495 7.97 11.495 11 12 C11 14.97 11 17.94 11 21 C10.67 20.34 10.34 19.68 10 19 C9.01 19.33 8.02 19.66 7 20 C7 19.34 7 18.68 7 18 C6.34 18 5.68 18 5 18 C5 20.64 5 23.28 5 26 C7.31 26 9.62 26 12 26 C12.33 27.65 12.66 29.3 13 31 C11.68 31 10.36 31 9 31 C8.67 32.32 8.34 33.64 8 35 C7.67 34.34 7.34 33.68 7 33 C5.515 33.495 5.515 33.495 4 34 C4 33.34 4 32.68 4 32 C2.68 32 1.36 32 0 32 C-0.02693575 29.87506859 -0.04636628 27.75004088 -0.0625 25.625 C-0.07410156 24.44164062 -0.08570313 23.25828125 -0.09765625 22.0390625 C0 19 0 19 1 17 C0.34 17 -0.32 17 -1 17 C-0.67 11.39 -0.34 5.78 0 0 Z " fill="#0C0C0C" transform="translate(296,172)"/>
<path d="M0 0 C2.3125 -0.25 2.3125 -0.25 5 0 C6.8125 1.75 6.8125 1.75 8 4 C8 5.32 8 6.64 8 8 C8.66 8 9.32 8 10 8 C10.33 5.69 10.66 3.38 11 1 C12.65 0.67 14.3 0.34 16 0 C16 4.62 16 9.24 16 14 C15.67 14 15.34 14 15 14 C14.67 15.98 14.34 17.96 14 20 C13.01 20 12.02 20 11 20 C11 26.27 11 32.54 11 39 C10.67 39 10.34 39 10 39 C10 37.02 10 35.04 10 33 C9.34 33 8.68 33 8 33 C7.67 33.66 7.34 34.32 7 35 C4.83305464 32.83305464 5.6492333 27.31490575 5.5703125 24.25390625 C5.34353873 19.16094524 4.20107031 15.5981647 2 11 C0.72582493 7.04335109 0 4.17209467 0 0 Z " fill="#0E0E0E" transform="translate(211,171)"/>
<path d="M0 0 C5.28 0 10.56 0 16 0 C16 2.64 16 5.28 16 8 C15.34 8 14.68 8 14 8 C14 7.34 14 6.68 14 6 C12.68 6 11.36 6 10 6 C10.09539062 7.05316406 10.19078125 8.10632813 10.2890625 9.19140625 C11.08779104 19.1343594 10.73232232 28.1644179 9 38 C8.34 38 7.68 38 7 38 C7 36.02 7 34.04 7 32 C6.01 31.67 5.02 31.34 4 31 C4.14228301 28.16644901 4.28873416 25.33321213 4.4375 22.5 C4.49647461 21.31277344 4.49647461 21.31277344 4.55664062 20.1015625 C4.82705218 15.02614559 5.3127142 10.03624555 6 5 C5.34 5 4.68 5 4 5 C4 5.99 4 6.98 4 8 C3.34 8 2.68 8 2 8 C0 5 0 5 0 0 Z " fill="#151515" transform="translate(336,172)"/>
<path d="M0 0 C5.28 0 10.56 0 16 0 C16 2.64 16 5.28 16 8 C15.67 7.34 15.34 6.68 15 6 C13.68 6 12.36 6 11 6 C11.01047363 6.7206665 11.02094727 7.44133301 11.03173828 8.18383789 C11.07353715 11.47668921 11.09940188 14.7694845 11.125 18.0625 C11.14175781 19.19623047 11.15851563 20.32996094 11.17578125 21.49804688 C11.21019727 27.40039384 11.04944811 32.44067027 9 38 C8.34 38 7.68 38 7 38 C7 36.02 7 34.04 7 32 C6.34 32 5.68 32 5 32 C4.61970483 13.28102688 4.61970483 13.28102688 7 5 C5.68 5.99 4.36 6.98 3 8 C1.5 6.8125 1.5 6.8125 0 5 C0 3.35 0 1.7 0 0 Z " fill="#151515" transform="translate(192,172)"/>
<path d="M0 0 C0.66 0 1.32 0 2 0 C3.25344168 3.88065543 3.18377543 7.77878874 3.1875 11.8125 C3.19974609 12.49892578 3.21199219 13.18535156 3.22460938 13.89257812 C3.2380431 18.62572725 2.48667949 22.50470432 1 27 C0.34 27 -0.32 27 -1 27 C-1 25.02 -1 23.04 -1 21 C-1.66 21 -2.32 21 -3 21 C-3.25386715 7.48862602 -3.25386715 7.48862602 -2 2 C-1.34 1.34 -0.68 0.68 0 0 Z " fill="#0F0F0F" transform="translate(200,183)"/>
<path d="M0 0 C0.66 0.33 1.32 0.66 2 1 C3.00005304 4.00015912 3.11575585 5.97423756 3.09765625 9.10546875 C3.09443359 10.08837891 3.09121094 11.07128906 3.08789062 12.08398438 C3.07951172 13.10814453 3.07113281 14.13230469 3.0625 15.1875 C3.05798828 16.22326172 3.05347656 17.25902344 3.04882812 18.32617188 C3.0370401 20.88417266 3.02058515 23.44205733 3 26 C1.68 26 0.36 26 -1 26 C-2 25 -2 25 -2.03759766 22.69921875 C-1.99683105 21.70535156 -1.95606445 20.71148437 -1.9140625 19.6875 C-1.87023437 18.61242187 -1.82640625 17.53734375 -1.78125 16.4296875 C-1.7296875 15.29789063 -1.678125 14.16609375 -1.625 13 C-1.58117187 11.86820313 -1.53734375 10.73640625 -1.4921875 9.5703125 C-1.12776081 1.12776081 -1.12776081 1.12776081 0 0 Z " fill="#F0F0F0" transform="translate(278,171)"/>
<path d="M0 0 C4.29 0 8.58 0 13 0 C13 3.3 13 6.6 13 10 C12.34 10 11.68 10 11 10 C11 9.01 11 8.02 11 7 C10.34 7 9.68 7 9 7 C9 6.34 9 5.68 9 5 C7.35 5.33 5.7 5.66 4 6 C3.67 7.32 3.34 8.64 3 10 C2.01 10 1.02 10 0 10 C0 6.7 0 3.4 0 0 Z " fill="#060606" transform="translate(296,172)"/>
<path d="M0 0 C0.66 0 1.32 0 2 0 C2 1.98 2 3.96 2 6 C2.66 6 3.32 6 4 6 C4 11.61 4 17.22 4 23 C2.35 23.33 0.7 23.66 -1 24 C-1.09579384 15.92138585 -1.12513633 8.01659634 0 0 Z " fill="#EAEAEA" transform="translate(254,175)"/>
<path d="M0 0 C0 0.66 0 1.32 0 2 C0.66 2 1.32 2 2 2 C2 2.99 2 3.98 2 5 C2.66 5.33 3.32 5.66 4 6 C1.26752652 7.36623674 -0.98198902 7.128426 -4 7 C-5 6 -5 6 -5.0625 3.4375 C-5.041875 2.633125 -5.02125 1.82875 -5 1 C-3 0 -3 0 0 0 Z " fill="#F0F0F0" transform="translate(305,177)"/>
<path d="M0 0 C0.33 0 0.66 0 1 0 C1.10251672 5.12583611 1.03590199 9.94997778 0 15 C-0.99 13.68 -1.98 12.36 -3 11 C-3.33 13.31 -3.66 15.62 -4 18 C-4.33 18 -4.66 18 -5 18 C-5.33 14.7 -5.66 11.4 -6 8 C-4.68 7.67 -3.36 7.34 -2 7 C-1.34 4.69 -0.68 2.38 0 0 Z " fill="#313131" transform="translate(263,179)"/>
<path d="M0 0 C3 1 3 1 5 3 C5.66 3 6.32 3 7 3 C7 4.32 7 5.64 7 7 C5.02 7.99 5.02 7.99 3 9 C0.9375 7.3125 0.9375 7.3125 -1 5 C-0.75 2.25 -0.75 2.25 0 0 Z " fill="#DCDCDC" transform="translate(322,177)"/>
<path d="M0 0 C0.99 0 1.98 0 3 0 C3.84098656 4.01804691 4.05404945 7.01803543 3 11 C1.68 10.01 0.36 9.02 -1 8 C-0.67 5.36 -0.34 2.72 0 0 Z " fill="#020202" transform="translate(259,189)"/>
<path d="M0 0 C1.2065625 0.0309375 1.2065625 0.0309375 2.4375 0.0625 C2.7675 1.3825 3.0975 2.7025 3.4375 4.0625 C2.81875 4.165625 2.2 4.26875 1.5625 4.375 C-0.92776484 4.93775373 -0.92776484 4.93775373 -2.5625 8.0625 C-2.94313221 5.7364143 -3.27519945 3.40194736 -3.5625 1.0625 C-2.5625 0.0625 -2.5625 0.0625 0 0 Z " fill="#202020" transform="translate(273.5625,170.9375)"/>
<path d="M0 0 C0.66 0 1.32 0 2 0 C2 1.98 2 3.96 2 6 C2.66 6 3.32 6 4 6 C3.67 7.65 3.34 9.3 3 11 C2.34 11 1.68 11 1 11 C-0.20272819 8.59454362 -0.10071472 7.05003047 -0.0625 4.375 C-0.05347656 3.55773437 -0.04445312 2.74046875 -0.03515625 1.8984375 C-0.02355469 1.27195313 -0.01195312 0.64546875 0 0 Z " fill="#868686" transform="translate(254,175)"/>
<path d="M0 0 C1.98 0.495 1.98 0.495 4 1 C4 2.32 4 3.64 4 5 C3.34 5.66 2.68 6.32 2 7 C0.4375 5.75 0.4375 5.75 -1 4 C-0.6875 1.8125 -0.6875 1.8125 0 0 Z " fill="#040404" transform="translate(154,183)"/>
<path d="M0 0 C0.66 0.33 1.32 0.66 2 1 C2.625 3.5625 2.625 3.5625 3 6 C2.34 6 1.68 6 1 6 C0.67 8.31 0.34 10.62 0 13 C-0.33 13 -0.66 13 -1 13 C-1.02686553 11.02090602 -1.04633375 9.04171029 -1.0625 7.0625 C-1.07410156 5.96035156 -1.08570313 4.85820312 -1.09765625 3.72265625 C-1 1 -1 1 0 0 Z " fill="#DBDBDB" transform="translate(278,171)"/>
<path d="M0 0 C0 0.99 0 1.98 0 3 C-1.62935241 4.37868281 -3.29749607 5.71274093 -5 7 C-5.33 7.66 -5.66 8.32 -6 9 C-6.66 8.67 -7.32 8.34 -8 8 C-3.63636364 0 -3.63636364 0 0 0 Z " fill="#D8D8D8" transform="translate(182,197)"/>
<path d="M0 0 C1.65 0.33 3.3 0.66 5 1 C4.67 1.99 4.34 2.98 4 4 C3.34 4 2.68 4 2 4 C1.67 4.99 1.34 5.98 1 7 C-1 4 -1 4 -0.625 1.8125 C-0.41875 1.214375 -0.2125 0.61625 0 0 Z " fill="#171717" transform="translate(273,196)"/>
<path d="M0 0 C0.33 0 0.66 0 1 0 C1 3.63 1 7.26 1 11 C0.34 11 -0.32 11 -1 11 C-1 10.01 -1 9.02 -1 8 C-1.66 8 -2.32 8 -3 8 C-3 7.34 -3 6.68 -3 6 C-2.01 6 -1.02 6 0 6 C0 4.02 0 2.04 0 0 Z " fill="#6C6C6C" transform="translate(264,200)"/>
<path d="M0 0 C0.66 0 1.32 0 2 0 C1.67 1.98 1.34 3.96 1 6 C0.01 6 -0.98 6 -2 6 C-2 3 -2 3 0 0 Z " fill="#DBDBDB" transform="translate(197,177)"/>
<path d="M0 0 C2 1 2 1 4 3 C3.67 3.99 3.34 4.98 3 6 C2.67 5.34 2.34 4.68 2 4 C1.01 4.33 0.02 4.66 -1 5 C-1.33 3.68 -1.66 2.36 -2 1 C-1.34 0.67 -0.68 0.34 0 0 Z " fill="#252525" transform="translate(301,201)"/>
<path d="M0 0 C0.99 0 1.98 0 3 0 C3 1.98 3 3.96 3 6 C2.01 6 1.02 6 0 6 C0 4.02 0 2.04 0 0 Z " fill="#B2B2B2" transform="translate(178,186)"/>
<path d="M0 0 C0.33 0 0.66 0 1 0 C1 3.3 1 6.6 1 10 C0.34 10 -0.32 10 -1 10 C-1 9.01 -1 8.02 -1 7 C-1.66 6.67 -2.32 6.34 -3 6 C-2.01 5.67 -1.02 5.34 0 5 C0 3.35 0 1.7 0 0 Z " fill="#6F6F6F" transform="translate(308,172)"/>
</svg>
